<?xml version="1.0" encoding="utf-8"?>
<!-- Generator: Adobe Illustrator 26.1.0, SVG Export Plug-In . SVG Version: 6.00 Build 0)  -->
<svg version="1.1" id="Layer_5" xmlns="http://www.w3.org/2000/svg" xmlns:xlink="http://www.w3.org/1999/xlink" x="0px" y="0px"
	 viewBox="175 175 730 730" style="enable-background:new 0 0 1080 1080;" xml:space="preserve">
<style type="text/css">
	.st0{fill:#FFFFFF;}
	.st1{fill:none;stroke:#FFFFFF;stroke-width:10.5008;stroke-linecap:round;stroke-miterlimit:10;}
	.st2{fill:none;stroke:#FFFFFF;stroke-width:6.3005;stroke-linecap:round;stroke-miterlimit:10;}
	.st3{clip-path:url(#SVGID_00000005948174383446390860000009519814907532570763_);}
</style>
<g>
	<g>
		<path class="st0" d="M539.69,698.06c-87.01,0-157.8-70.79-157.8-157.81c0-87.01,70.79-157.8,157.8-157.8
			s157.81,70.79,157.81,157.8C697.5,627.27,626.71,698.06,539.69,698.06z M539.69,388.75c-83.54,0-151.5,67.96-151.5,151.5
			c0,83.54,67.96,151.51,151.5,151.51S691.2,623.79,691.2,540.25C691.2,456.71,623.23,388.75,539.69,388.75z"/>
		<path class="st0" d="M883.36,592.93L692.78,571.5V509l190.58-21.42c5.97-0.67,11.2,4,11.2,10.01v85.33
			C894.56,588.92,889.33,593.6,883.36,592.93z"/>
		<path class="st0" d="M592.37,197.36l-21.42,190.58h-62.5l-21.42-190.58c-0.67-5.97,4-11.2,10.01-11.2h85.33
			C588.37,186.17,593.04,191.39,592.37,197.36z"/>
		<path class="st0" d="M592.37,197.36l-21.42,190.58h-62.5l-21.42-190.58c-0.67-5.97,4-11.2,10.01-11.2h85.33
			C588.37,186.17,593.04,191.39,592.37,197.36z"/>
		<path class="st0" d="M196.64,487.58L387.22,509l0,62.5l-190.58,21.42c-5.97,0.67-11.2-4-11.2-10.01l0-85.33
			C185.44,491.58,190.67,486.91,196.64,487.58z"/>
		<path class="st0" d="M487.02,882.64l21.42-190.58h62.5l21.42,190.58c0.67,5.97-4,11.2-10.01,11.2h-85.33
			C491.02,893.83,486.35,888.61,487.02,882.64z"/>
		<g>
			<g>
				<line class="st1" x1="540.49" y1="867.71" x2="540.08" y2="699.86"/>
			</g>
			<g>
				<line class="st1" x1="376.65" y1="824.23" x2="460.22" y2="678.67"/>
			</g>
			<g>
				<line class="st1" x1="256.51" y1="704.66" x2="401.66" y2="620.39"/>
			</g>
			<g>
				<line class="st1" x1="212.24" y1="541.04" x2="380.08" y2="540.64"/>
			</g>
			<g>
				<line class="st1" x1="255.71" y1="377.21" x2="401.27" y2="460.78"/>
			</g>
			<g>
				<line class="st1" x1="375.28" y1="257.06" x2="459.56" y2="402.22"/>
			</g>
			<g>
				<line class="st1" x1="538.9" y1="212.8" x2="539.31" y2="380.64"/>
			</g>
			<g>
				<line class="st1" x1="702.74" y1="256.27" x2="619.17" y2="401.83"/>
			</g>
			<g>
				<line class="st1" x1="822.88" y1="375.84" x2="677.73" y2="460.11"/>
			</g>
			<g>
				<line class="st1" x1="867.15" y1="539.46" x2="699.31" y2="539.87"/>
			</g>
			<g>
				<line class="st1" x1="823.67" y1="703.3" x2="678.11" y2="619.72"/>
			</g>
			<g>
				<line class="st1" x1="704.11" y1="823.44" x2="619.83" y2="678.29"/>
			</g>
		</g>
		<g>
			<g>
				<line class="st2" x1="540.44" y1="810.08" x2="540.12" y2="694.99"/>
			</g>
			<g>
				<line class="st2" x1="457.02" y1="797.1" x2="492.28" y2="687.55"/>
			</g>
			<g>
				<line class="st2" x1="381.7" y1="758.99" x2="449.09" y2="665.69"/>
			</g>
			<g>
				<line class="st2" x1="321.84" y1="699.46" x2="414.76" y2="631.55"/>
			</g>
			<g>
				<line class="st2" x1="283.3" y1="624.34" x2="392.66" y2="588.48"/>
			</g>
			<g>
				<line class="st2" x1="269.87" y1="541" x2="384.96" y2="540.68"/>
			</g>
			<g>
				<line class="st2" x1="282.84" y1="457.58" x2="392.4" y2="492.84"/>
			</g>
			<g>
				<line class="st2" x1="320.96" y1="382.26" x2="414.26" y2="449.65"/>
			</g>
			<g>
				<line class="st2" x1="380.49" y1="322.4" x2="448.39" y2="415.32"/>
			</g>
			<g>
				<line class="st2" x1="455.6" y1="283.86" x2="491.47" y2="393.22"/>
			</g>
			<g>
				<line class="st2" x1="538.95" y1="270.43" x2="539.27" y2="385.51"/>
			</g>
			<g>
				<line class="st2" x1="622.37" y1="283.4" x2="587.1" y2="392.95"/>
			</g>
			<g>
				<line class="st2" x1="697.69" y1="321.52" x2="630.3" y2="414.81"/>
			</g>
			<g>
				<line class="st2" x1="757.55" y1="381.05" x2="664.63" y2="448.95"/>
			</g>
			<g>
				<line class="st2" x1="796.08" y1="456.16" x2="686.73" y2="492.03"/>
			</g>
			<g>
				<line class="st2" x1="809.52" y1="539.51" x2="694.43" y2="539.82"/>
			</g>
			<g>
				<line class="st2" x1="796.55" y1="622.92" x2="686.99" y2="587.66"/>
			</g>
			<g>
				<line class="st2" x1="758.43" y1="698.25" x2="665.13" y2="630.86"/>
			</g>
			<g>
				<line class="st2" x1="698.9" y1="758.11" x2="630.99" y2="665.19"/>
			</g>
			<g>
				<line class="st2" x1="623.79" y1="796.64" x2="587.92" y2="687.29"/>
			</g>
		</g>
	</g>
	<path class="st0" d="M539.7,401.41c-76.68,0-138.84,62.16-138.84,138.84c0,76.68,62.16,138.84,138.84,138.84
		c76.68,0,138.84-62.16,138.84-138.84C678.54,463.57,616.38,401.41,539.7,401.41z M540.17,636.17c-53.02,0-96-42.98-96-96
		c0-53.02,42.98-96,96-96c53.02,0,96,42.98,96,96C636.17,593.19,593.19,636.17,540.17,636.17z"/>
	<g>
		<defs>
			<circle id="SVGID_1_" cx="540.17" cy="540.17" r="101"/>
		</defs>
		<clipPath id="SVGID_00000002369778164994158240000001582225608819078047_">
			<use xlink:href="#SVGID_1_"  style="overflow:visible;"/>
		</clipPath>
		<g style="clip-path:url(#SVGID_00000002369778164994158240000001582225608819078047_);">
			<rect x="547.17" y="361.33" class="st0" width="6" height="367.84"/>
			<rect x="527.17" y="361.33" class="st0" width="6" height="367.84"/>
			<rect x="507.17" y="361.33" class="st0" width="6" height="367.84"/>
			<rect x="487.17" y="361.33" class="st0" width="6" height="367.84"/>
			<rect x="567.17" y="361.33" class="st0" width="6" height="367.84"/>
			<rect x="587.17" y="361.33" class="st0" width="6" height="367.84"/>
		</g>
	</g>
</g>
</svg>
