<?xml version='1.0' encoding='utf-8'?>
<!DOCTYPE score-partwise PUBLIC "-//Recordare//DTD MusicXML 3.0 Partwise//EN" "http://www.musicxml.org/dtds/partwise.dtd">
<score-partwise>
  <work>
    <work-number>Misa - Comunión
Solemne</work-number>
    <work-title>Symbolum 77</work-title>
  </work>
  <identification>
    <encoding>
      <encoder>abc2xml version 239</encoder>
      <encoding-date>2023-09-06</encoding-date>
    </encoding>
  </identification>
  <part-list>
    <score-part id="P1">
      <part-name />
      <score-instrument id="I1-1">
        <instrument-name>dummy</instrument-name>
      </score-instrument>
      <midi-instrument id="I1-1">
        <midi-program>75</midi-program>
      </midi-instrument>
    </score-part>
  </part-list>
  <part id="P1">
    <measure number="1">
      <direction placement="above">
        <direction-type>
          <metronome>
            <beat-unit>quarter</beat-unit>
            <per-minute>80</per-minute>
          </metronome>
        </direction-type>
        <sound tempo="80.00" />
      </direction>
      <attributes>
        <divisions>120</divisions>
        <key>
          <fifths>-2</fifths>
          <mode>major</mode>
        </key>
        <time>
          <beats>2</beats>
          <beat-type>4</beat-type>
        </time>
      </attributes>
      <harmony>
        <root>
          <root-step>G</root-step>
        </root>
        <kind>minor</kind>
      </harmony>
      <note>
        <pitch>
          <step>G</step>
          <octave>4</octave>
        </pitch>
        <duration>60</duration>
        <voice>1</voice>
        <type>eighth</type>
        <beam number="1">begin</beam>
        <lyric number="1">
          <syllabic>begin</syllabic>
          <text>1. E</text>
        </lyric>
        <lyric number="2">
          <syllabic>single</syllabic>
          <text>2. Creo en</text>
        </lyric>
        <lyric number="3">
          <syllabic>begin</syllabic>
          <text>3. E</text>
        </lyric>
        <lyric number="4">
          <syllabic>begin</syllabic>
          <text>4. E</text>
        </lyric>
      </note>
      <note>
        <pitch>
          <step>G</step>
          <octave>4</octave>
        </pitch>
        <duration>60</duration>
        <voice>1</voice>
        <type>eighth</type>
        <beam number="1">end</beam>
        <lyric number="1">
          <syllabic>end</syllabic>
          <text>res</text>
        </lyric>
        <lyric number="2">
          <syllabic>single</syllabic>
          <text>ti</text>
        </lyric>
        <lyric number="3">
          <syllabic>end</syllabic>
          <text>res</text>
        </lyric>
        <lyric number="4">
          <syllabic>end</syllabic>
          <text>res</text>
        </lyric>
      </note>
      <note>
        <pitch>
          <step>G</step>
          <octave>4</octave>
        </pitch>
        <duration>60</duration>
        <voice>1</voice>
        <type>eighth</type>
        <beam number="1">begin</beam>
        <lyric number="1">
          <syllabic>single</syllabic>
          <text>tú</text>
        </lyric>
        <lyric number="2">
          <syllabic>begin</syllabic>
          <text>Je</text>
        </lyric>
        <lyric number="3">
          <syllabic>single</syllabic>
          <text>tú</text>
        </lyric>
        <lyric number="4">
          <syllabic>single</syllabic>
          <text>pan</text>
        </lyric>
      </note>
      <note>
        <pitch>
          <step>A</step>
          <octave>4</octave>
        </pitch>
        <duration>60</duration>
        <voice>1</voice>
        <type>eighth</type>
        <beam number="1">end</beam>
        <lyric number="1">
          <syllabic>single</syllabic>
          <text>mi</text>
        </lyric>
        <lyric number="2">
          <syllabic>middle</syllabic>
          <text>su</text>
        </lyric>
        <lyric number="3">
          <syllabic>single</syllabic>
          <text>mi</text>
        </lyric>
        <lyric number="4">
          <syllabic>single</syllabic>
          <text>de</text>
        </lyric>
      </note>
    </measure>
    <measure number="2">
      <harmony>
        <root>
          <root-step>E</root-step>
          <root-alter>-1</root-alter>
        </root>
        <kind>major</kind>
      </harmony>
      <note>
        <pitch>
          <step>B</step>
          <alter>-1</alter>
          <octave>4</octave>
        </pitch>
        <duration>120</duration>
        <voice>1</voice>
        <type>quarter</type>
        <lyric number="1">
          <syllabic>begin</syllabic>
          <text>vi</text>
        </lyric>
        <lyric number="2">
          <syllabic>middle</syllabic>
          <text>cris</text>
        </lyric>
        <lyric number="3">
          <syllabic>begin</syllabic>
          <text>fuer</text>
        </lyric>
        <lyric number="4">
          <syllabic>begin</syllabic>
          <text>vi</text>
        </lyric>
      </note>
      <note>
        <pitch>
          <step>B</step>
          <alter>-1</alter>
          <octave>4</octave>
        </pitch>
        <duration>120</duration>
        <voice>1</voice>
        <type>quarter</type>
        <lyric number="1">
          <syllabic>end</syllabic>
          <text>da,</text>
        </lyric>
        <lyric number="2">
          <syllabic>end</syllabic>
          <text>to,</text>
        </lyric>
        <lyric number="3">
          <syllabic>end</syllabic>
          <text>za,</text>
        </lyric>
        <lyric number="4">
          <syllabic>end</syllabic>
          <text>da,</text>
        </lyric>
      </note>
    </measure>
    <measure number="3">
      <harmony>
        <root>
          <root-step>F</root-step>
        </root>
        <kind>major</kind>
      </harmony>
      <note>
        <pitch>
          <step>A</step>
          <octave>4</octave>
        </pitch>
        <duration>60</duration>
        <voice>1</voice>
        <type>eighth</type>
        <beam number="1">begin</beam>
        <lyric number="1">
          <syllabic>begin</syllabic>
          <text>so</text>
        </lyric>
        <lyric number="2">
          <syllabic>begin</syllabic>
          <text>Hi</text>
        </lyric>
        <lyric number="3">
          <syllabic>begin</syllabic>
          <text>so</text>
        </lyric>
        <lyric number="4">
          <syllabic>begin</syllabic>
          <text>fuen</text>
        </lyric>
      </note>
      <note>
        <pitch>
          <step>B</step>
          <alter>-1</alter>
          <octave>4</octave>
        </pitch>
        <duration>60</duration>
        <voice>1</voice>
        <type>eighth</type>
        <beam number="1">end</beam>
        <lyric number="1">
          <syllabic>end</syllabic>
          <text>lo</text>
        </lyric>
        <lyric number="2">
          <syllabic>end</syllabic>
          <text>jo</text>
        </lyric>
        <lyric number="3">
          <syllabic>end</syllabic>
          <text>lo</text>
        </lyric>
        <lyric number="4">
          <syllabic>end</syllabic>
          <text>te</text>
        </lyric>
      </note>
      <note>
        <pitch>
          <step>A</step>
          <octave>4</octave>
        </pitch>
        <duration>60</duration>
        <voice>1</voice>
        <type>eighth</type>
        <beam number="1">begin</beam>
        <lyric number="1">
          <syllabic>single</syllabic>
          <text>tú</text>
        </lyric>
        <lyric number="2">
          <syllabic>single</syllabic>
          <text>de</text>
        </lyric>
        <lyric number="3">
          <syllabic>single</syllabic>
          <text>tú</text>
        </lyric>
        <lyric number="4">
          <syllabic>single</syllabic>
          <text>de</text>
        </lyric>
      </note>
      <note>
        <pitch>
          <step>F</step>
          <octave>4</octave>
        </pitch>
        <duration>60</duration>
        <voice>1</voice>
        <type>eighth</type>
        <beam number="1">end</beam>
        <lyric number="1">
          <syllabic>begin</syllabic>
          <text>Se</text>
        </lyric>
        <lyric number="2">
          <syllabic>begin</syllabic>
          <text>Ma</text>
        </lyric>
        <lyric number="3">
          <syllabic>begin</syllabic>
          <text>Se</text>
        </lyric>
        <lyric number="4">
          <syllabic>begin</syllabic>
          <text>mi a</text>
        </lyric>
      </note>
    </measure>
    <measure number="4">
      <harmony>
        <root>
          <root-step>G</root-step>
        </root>
        <kind>minor</kind>
      </harmony>
      <note>
        <pitch>
          <step>D</step>
          <octave>4</octave>
        </pitch>
        <duration>120</duration>
        <tie type="start" />
        <voice>1</voice>
        <type>quarter</type>
        <notations>
          <tied type="start" />
        </notations>
        <lyric number="1">
          <syllabic>end</syllabic>
          <text>ñor.</text>
          <extend type="start" />
        </lyric>
        <lyric number="2">
          <syllabic>middle</syllabic>
          <text>rí</text>
        </lyric>
        <lyric number="3">
          <syllabic>end</syllabic>
          <text>ñor.</text>
          <extend type="start" />
        </lyric>
        <lyric number="4">
          <syllabic>end</syllabic>
          <text>mor.</text>
          <extend type="start" />
        </lyric>
      </note>
      <note>
        <pitch>
          <step>D</step>
          <octave>4</octave>
        </pitch>
        <duration>120</duration>
        <tie type="stop" />
        <voice>1</voice>
        <type>quarter</type>
        <notations>
          <tied type="stop" />
        </notations>
        <lyric number="1">
          <extend type="stop" />
        </lyric>
        <lyric number="2">
          <syllabic>end</syllabic>
          <text>a.</text>
        </lyric>
        <lyric number="3">
          <extend type="stop" />
        </lyric>
        <lyric number="4">
          <extend type="stop" />
        </lyric>
      </note>
    </measure>
    <measure number="5">
      <note>
        <pitch>
          <step>G</step>
          <octave>4</octave>
        </pitch>
        <duration>60</duration>
        <voice>1</voice>
        <type>eighth</type>
        <beam number="1">begin</beam>
        <lyric number="1">
          <syllabic>begin</syllabic>
          <text>E</text>
        </lyric>
        <lyric number="2">
          <syllabic>begin</syllabic>
          <text>Hi</text>
        </lyric>
        <lyric number="3">
          <syllabic>begin</syllabic>
          <text>E</text>
        </lyric>
        <lyric number="4">
          <syllabic>single</syllabic>
          <text>Tú</text>
        </lyric>
      </note>
      <note>
        <pitch>
          <step>G</step>
          <octave>4</octave>
        </pitch>
        <duration>60</duration>
        <voice>1</voice>
        <type>eighth</type>
        <beam number="1">end</beam>
        <lyric number="1">
          <syllabic>end</syllabic>
          <text>res</text>
        </lyric>
        <lyric number="2">
          <syllabic>middle</syllabic>
          <text>jo e</text>
        </lyric>
        <lyric number="3">
          <syllabic>end</syllabic>
          <text>res</text>
        </lyric>
        <lyric number="4">
          <syllabic>single</syllabic>
          <text>mi</text>
        </lyric>
      </note>
      <note>
        <pitch>
          <step>G</step>
          <octave>4</octave>
        </pitch>
        <duration>60</duration>
        <voice>1</voice>
        <type>eighth</type>
        <beam number="1">begin</beam>
        <lyric number="1">
          <syllabic>single</syllabic>
          <text>mi</text>
        </lyric>
        <lyric number="2">
          <syllabic>middle</syllabic>
          <text>ter</text>
        </lyric>
        <lyric number="3">
          <syllabic>single</syllabic>
          <text>luz</text>
        </lyric>
        <lyric number="4">
          <syllabic>begin</syllabic>
          <text>for</text>
        </lyric>
      </note>
      <note>
        <pitch>
          <step>A</step>
          <octave>4</octave>
        </pitch>
        <duration>60</duration>
        <voice>1</voice>
        <type>eighth</type>
        <beam number="1">end</beam>
        <lyric number="1">
          <syllabic>begin</syllabic>
          <text>ca</text>
        </lyric>
        <lyric number="2">
          <syllabic>end</syllabic>
          <text>no y</text>
        </lyric>
        <lyric number="3">
          <syllabic>single</syllabic>
          <text>de</text>
        </lyric>
        <lyric number="4">
          <syllabic>middle</syllabic>
          <text>ta</text>
        </lyric>
      </note>
    </measure>
    <measure number="6">
      <harmony>
        <root>
          <root-step>E</root-step>
          <root-alter>-1</root-alter>
        </root>
        <kind>major</kind>
      </harmony>
      <note>
        <pitch>
          <step>B</step>
          <alter>-1</alter>
          <octave>4</octave>
        </pitch>
        <duration>120</duration>
        <voice>1</voice>
        <type>quarter</type>
        <lyric number="1">
          <syllabic>middle</syllabic>
          <text>mi</text>
        </lyric>
        <lyric number="2">
          <syllabic>begin</syllabic>
          <text>san</text>
        </lyric>
        <lyric number="3">
          <syllabic>begin</syllabic>
          <text>mi al</text>
        </lyric>
        <lyric number="4">
          <syllabic>middle</syllabic>
          <text>le</text>
        </lyric>
      </note>
      <note>
        <pitch>
          <step>B</step>
          <alter>-1</alter>
          <octave>4</octave>
        </pitch>
        <duration>120</duration>
        <voice>1</voice>
        <type>quarter</type>
        <lyric number="1">
          <syllabic>end</syllabic>
          <text>no</text>
        </lyric>
        <lyric number="2">
          <syllabic>end</syllabic>
          <text>to,</text>
        </lyric>
        <lyric number="3">
          <syllabic>end</syllabic>
          <text>ma,</text>
        </lyric>
        <lyric number="4">
          <syllabic>end</syllabic>
          <text>za,</text>
        </lyric>
      </note>
    </measure>
    <measure number="7">
      <harmony>
        <root>
          <root-step>F</root-step>
        </root>
        <kind>major</kind>
      </harmony>
      <note>
        <pitch>
          <step>A</step>
          <octave>4</octave>
        </pitch>
        <duration>60</duration>
        <voice>1</voice>
        <type>eighth</type>
        <beam number="1">begin</beam>
        <lyric number="1">
          <syllabic>begin</syllabic>
          <text>e</text>
        </lyric>
        <lyric number="2">
          <syllabic>begin</syllabic>
          <text>nues</text>
        </lyric>
        <lyric number="3">
          <syllabic>single</syllabic>
          <text>y</text>
        </lyric>
        <lyric number="4">
          <syllabic>begin</syllabic>
          <text>e</text>
        </lyric>
      </note>
      <note>
        <pitch>
          <step>B</step>
          <alter>-1</alter>
          <octave>4</octave>
        </pitch>
        <duration>60</duration>
        <voice>1</voice>
        <type>eighth</type>
        <beam number="1">end</beam>
        <lyric number="1">
          <syllabic>end</syllabic>
          <text>res</text>
        </lyric>
        <lyric number="2">
          <syllabic>end</syllabic>
          <text>tro</text>
        </lyric>
        <lyric number="3">
          <syllabic>single</syllabic>
          <text>mi</text>
        </lyric>
        <lyric number="4">
          <syllabic>end</syllabic>
          <text>res</text>
        </lyric>
      </note>
      <note>
        <pitch>
          <step>C</step>
          <octave>5</octave>
        </pitch>
        <duration>60</duration>
        <voice>1</voice>
        <type>eighth</type>
        <beam number="1">begin</beam>
        <lyric number="1">
          <syllabic>single</syllabic>
          <text>mi</text>
        </lyric>
        <lyric number="2">
          <syllabic>begin</syllabic>
          <text>Re</text>
        </lyric>
        <lyric number="3">
          <syllabic>begin</syllabic>
          <text>li</text>
        </lyric>
        <lyric number="4">
          <syllabic>single</syllabic>
          <text>mi</text>
        </lyric>
      </note>
      <note>
        <pitch>
          <step>E</step>
          <alter>-1</alter>
          <octave>5</octave>
        </pitch>
        <duration>60</duration>
        <voice>1</voice>
        <type>eighth</type>
        <beam number="1">end</beam>
        <lyric number="1">
          <syllabic>begin</syllabic>
          <text>ver</text>
        </lyric>
        <lyric number="2">
          <syllabic>middle</syllabic>
          <text>den</text>
        </lyric>
        <lyric number="3">
          <syllabic>middle</syllabic>
          <text>ber</text>
        </lyric>
        <lyric number="4">
          <syllabic>begin</syllabic>
          <text>Se</text>
        </lyric>
      </note>
    </measure>
    <measure number="8">
      <harmony>
        <root>
          <root-step>B</root-step>
          <root-alter>-1</root-alter>
        </root>
        <kind>major</kind>
      </harmony>
      <note>
        <pitch>
          <step>D</step>
          <octave>5</octave>
        </pitch>
        <duration>240</duration>
        <voice>1</voice>
        <type>half</type>
        <lyric number="1">
          <syllabic>end</syllabic>
          <text>dad.</text>
        </lyric>
        <lyric number="2">
          <syllabic>end</syllabic>
          <text>tor.</text>
        </lyric>
        <lyric number="3">
          <syllabic>end</syllabic>
          <text>tad.</text>
        </lyric>
        <lyric number="4">
          <syllabic>end</syllabic>
          <text>ñor.</text>
        </lyric>
      </note>
    </measure>
    <measure number="9">
      <harmony>
        <root>
          <root-step>C</root-step>
        </root>
        <kind>minor</kind>
      </harmony>
      <note>
        <pitch>
          <step>E</step>
          <alter>-1</alter>
          <octave>5</octave>
        </pitch>
        <duration>60</duration>
        <voice>1</voice>
        <type>eighth</type>
        <beam number="1">begin</beam>
        <lyric number="1">
          <syllabic>begin</syllabic>
          <text>Se</text>
        </lyric>
        <lyric number="2">
          <syllabic>single</syllabic>
          <text>Creo</text>
        </lyric>
        <lyric number="3">
          <syllabic>begin</syllabic>
          <text>Na</text>
        </lyric>
        <lyric number="4">
          <syllabic>single</syllabic>
          <text>Tú</text>
        </lyric>
      </note>
      <note>
        <pitch>
          <step>D</step>
          <octave>5</octave>
        </pitch>
        <duration>60</duration>
        <voice>1</voice>
        <type>eighth</type>
        <beam number="1">end</beam>
        <lyric number="1">
          <syllabic>middle</syllabic>
          <text>gui</text>
        </lyric>
        <lyric number="2">
          <syllabic>single</syllabic>
          <text>que</text>
        </lyric>
        <lyric number="3">
          <syllabic>end</syllabic>
          <text>da en</text>
        </lyric>
        <lyric number="4">
          <syllabic>single</syllabic>
          <text>que</text>
        </lyric>
      </note>
      <note>
        <pitch>
          <step>E</step>
          <alter>-1</alter>
          <octave>5</octave>
        </pitch>
        <duration>60</duration>
        <voice>1</voice>
        <type>eighth</type>
        <beam number="1">begin</beam>
        <lyric number="1">
          <syllabic>end</syllabic>
          <text>ré</text>
        </lyric>
        <lyric number="2">
          <syllabic>single</syllabic>
          <text>por</text>
        </lyric>
        <lyric number="3">
          <syllabic>begin</syllabic>
          <text>es</text>
        </lyric>
        <lyric number="4">
          <syllabic>begin</syllabic>
          <text>sa</text>
        </lyric>
      </note>
      <note>
        <pitch>
          <step>G</step>
          <octave>4</octave>
        </pitch>
        <duration>60</duration>
        <voice>1</voice>
        <type>eighth</type>
        <beam number="1">end</beam>
        <lyric number="1">
          <syllabic>single</syllabic>
          <text>tus</text>
        </lyric>
        <lyric number="2">
          <syllabic>begin</syllabic>
          <text>sal</text>
        </lyric>
        <lyric number="3">
          <syllabic>end</syllabic>
          <text>te</text>
        </lyric>
        <lyric number="4">
          <syllabic>end</syllabic>
          <text>bes</text>
        </lyric>
      </note>
    </measure>
    <measure number="10">
      <harmony>
        <root>
          <root-step>F</root-step>
        </root>
        <kind>major</kind>
      </harmony>
      <note>
        <pitch>
          <step>G</step>
          <octave>4</octave>
        </pitch>
        <duration>60</duration>
        <tie type="start" />
        <voice>1</voice>
        <type>eighth</type>
        <beam number="1">begin</beam>
        <notations>
          <tied type="start" />
        </notations>
        <lyric number="1">
          <syllabic>begin</syllabic>
          <text>pa</text>
        </lyric>
        <lyric number="2">
          <syllabic>middle</syllabic>
          <text>va</text>
        </lyric>
        <lyric number="3">
          <syllabic>begin</syllabic>
          <text>mu</text>
        </lyric>
        <lyric number="4">
          <syllabic>single</syllabic>
          <text>bien</text>
        </lyric>
      </note>
      <note>
        <pitch>
          <step>G</step>
          <octave>4</octave>
        </pitch>
        <duration>60</duration>
        <tie type="stop" />
        <voice>1</voice>
        <type>eighth</type>
        <beam number="1">end</beam>
        <notations>
          <tied type="stop" />
        </notations>
        <lyric number="1">
          <syllabic>middle</syllabic>
          <text>a</text>
        </lyric>
        <lyric number="2">
          <syllabic>middle</syllabic>
          <text>ar</text>
        </lyric>
        <lyric number="3">
          <syllabic>middle</syllabic>
          <text>un</text>
        </lyric>
        <lyric number="4">
          <syllabic>single</syllabic>
          <text>quien</text>
        </lyric>
      </note>
      <note>
        <pitch>
          <step>A</step>
          <octave>4</octave>
        </pitch>
        <duration>120</duration>
        <voice>1</voice>
        <type>quarter</type>
        <lyric number="1">
          <syllabic>end</syllabic>
          <text>sos,</text>
        </lyric>
        <lyric number="2">
          <syllabic>end</syllabic>
          <text>me,</text>
        </lyric>
        <lyric number="3">
          <syllabic>end</syllabic>
          <text>do</text>
        </lyric>
        <lyric number="4">
          <syllabic>single</syllabic>
          <text>soy,</text>
        </lyric>
      </note>
    </measure>
    <measure number="11">
      <harmony>
        <root>
          <root-step>B</root-step>
          <root-alter>-1</root-alter>
        </root>
        <kind>major</kind>
      </harmony>
      <note>
        <pitch>
          <step>D</step>
          <octave>5</octave>
        </pitch>
        <duration>60</duration>
        <voice>1</voice>
        <type>eighth</type>
        <beam number="1">begin</beam>
        <lyric number="1">
          <syllabic>single</syllabic>
          <text>me</text>
        </lyric>
        <lyric number="2">
          <syllabic>begin</syllabic>
          <text>mo</text>
        </lyric>
        <lyric number="3">
          <syllabic>single</syllabic>
          <text>nos</text>
        </lyric>
        <lyric number="4">
          <syllabic>begin</syllabic>
          <text>da</text>
        </lyric>
      </note>
      <note>
        <pitch>
          <step>C</step>
          <octave>5</octave>
        </pitch>
        <duration>60</duration>
        <voice>1</voice>
        <type>eighth</type>
        <beam number="1">continue</beam>
        <lyric number="1">
          <syllabic>begin</syllabic>
          <text>guia</text>
        </lyric>
        <lyric number="2">
          <syllabic>middle</syllabic>
          <text>ris</text>
        </lyric>
        <lyric number="3">
          <syllabic>begin</syllabic>
          <text>se</text>
        </lyric>
        <lyric number="4">
          <syllabic>end</syllabic>
          <text>me</text>
        </lyric>
      </note>
      <note>
        <pitch>
          <step>D</step>
          <octave>5</octave>
        </pitch>
        <duration>60</duration>
        <voice>1</voice>
        <type>eighth</type>
        <beam number="1">continue</beam>
        <lyric number="1">
          <syllabic>end</syllabic>
          <text>rá</text>
        </lyric>
        <lyric number="2">
          <syllabic>end</syllabic>
          <text>te en</text>
        </lyric>
        <lyric number="3">
          <syllabic>middle</syllabic>
          <text>pa</text>
        </lyric>
        <lyric number="4">
          <syllabic>single</syllabic>
          <text>tu</text>
        </lyric>
      </note>
      <note>
        <pitch>
          <step>F</step>
          <octave>4</octave>
        </pitch>
        <duration>60</duration>
        <voice>1</voice>
        <type>eighth</type>
        <beam number="1">end</beam>
        <lyric number="1">
          <syllabic>begin</syllabic>
          <text>tu a</text>
        </lyric>
        <lyric number="2">
          <syllabic>single</syllabic>
          <text>la</text>
        </lyric>
        <lyric number="3">
          <syllabic>middle</syllabic>
          <text>ra</text>
        </lyric>
        <lyric number="4">
          <syllabic>begin</syllabic>
          <text>per</text>
        </lyric>
      </note>
    </measure>
    <measure number="12">
      <harmony>
        <root>
          <root-step>G</root-step>
        </root>
        <kind>minor</kind>
      </harmony>
      <note>
        <pitch>
          <step>G</step>
          <octave>4</octave>
        </pitch>
        <duration>240</duration>
        <voice>1</voice>
        <type>half</type>
        <lyric number="1">
          <syllabic>end</syllabic>
          <text>mor.</text>
        </lyric>
        <lyric number="2">
          <syllabic>single</syllabic>
          <text>Cruz.</text>
        </lyric>
        <lyric number="3">
          <syllabic>end</syllabic>
          <text>rá.</text>
        </lyric>
        <lyric number="4">
          <syllabic>end</syllabic>
          <text>dón.</text>
        </lyric>
      </note>
    </measure>
    <measure number="13">
      <harmony>
        <root>
          <root-step>C</root-step>
        </root>
        <kind>minor</kind>
      </harmony>
      <note>
        <pitch>
          <step>G</step>
          <octave>4</octave>
        </pitch>
        <duration>60</duration>
        <voice>1</voice>
        <type>eighth</type>
        <beam number="1">begin</beam>
        <lyric number="1">
          <syllabic>single</syllabic>
          <text>Tú</text>
        </lyric>
        <lyric number="2">
          <syllabic>single</syllabic>
          <text>Y al</text>
        </lyric>
        <lyric number="3">
          <syllabic>single</syllabic>
          <text>Ya</text>
        </lyric>
        <lyric number="4">
          <syllabic>single</syllabic>
          <text>En</text>
        </lyric>
      </note>
      <note>
        <pitch>
          <step>A</step>
          <octave>4</octave>
        </pitch>
        <duration>60</duration>
        <voice>1</voice>
        <type>eighth</type>
        <beam number="1">end</beam>
        <lyric number="1">
          <syllabic>single</syllabic>
          <text>me has</text>
        </lyric>
        <lyric number="2">
          <syllabic>begin</syllabic>
          <text>re</text>
        </lyric>
        <lyric number="3">
          <syllabic>single</syllabic>
          <text>sé</text>
        </lyric>
        <lyric number="4">
          <syllabic>single</syllabic>
          <text>tus</text>
        </lyric>
      </note>
      <note>
        <pitch>
          <step>B</step>
          <alter>-1</alter>
          <octave>4</octave>
        </pitch>
        <duration>60</duration>
        <voice>1</voice>
        <type>eighth</type>
        <beam number="1">begin</beam>
        <lyric number="1">
          <syllabic>begin</syllabic>
          <text>da</text>
        </lyric>
        <lyric number="2">
          <syllabic>middle</syllabic>
          <text>su</text>
        </lyric>
        <lyric number="3">
          <syllabic>single</syllabic>
          <text>que</text>
        </lyric>
        <lyric number="4">
          <syllabic>begin</syllabic>
          <text>ma</text>
        </lyric>
      </note>
      <note>
        <pitch>
          <step>G</step>
          <octave>4</octave>
        </pitch>
        <duration>60</duration>
        <voice>1</voice>
        <type>eighth</type>
        <beam number="1">end</beam>
        <lyric number="1">
          <syllabic>end</syllabic>
          <text>do</text>
        </lyric>
        <lyric number="2">
          <syllabic>middle</syllabic>
          <text>ci</text>
        </lyric>
        <lyric number="3">
          <syllabic>single</syllabic>
          <text>tu</text>
        </lyric>
        <lyric number="4">
          <syllabic>end</syllabic>
          <text>nos</text>
        </lyric>
      </note>
    </measure>
    <measure number="14">
      <harmony>
        <root>
          <root-step>F</root-step>
        </root>
        <kind>major</kind>
      </harmony>
      <note>
        <pitch>
          <step>A</step>
          <octave>4</octave>
        </pitch>
        <duration>60</duration>
        <voice>1</voice>
        <type>eighth</type>
        <beam number="1">begin</beam>
        <lyric number="1">
          <syllabic>begin</syllabic>
          <text>vi</text>
        </lyric>
        <lyric number="2">
          <syllabic>end</syllabic>
          <text>tar</text>
        </lyric>
        <lyric number="3">
          <syllabic>begin</syllabic>
          <text>ma</text>
        </lyric>
        <lyric number="4">
          <syllabic>single</syllabic>
          <text>yo</text>
        </lyric>
      </note>
      <note>
        <pitch>
          <step>B</step>
          <alter>-1</alter>
          <octave>4</octave>
        </pitch>
        <duration>60</duration>
        <voice>1</voice>
        <type>eighth</type>
        <beam number="1">end</beam>
        <lyric number="1">
          <syllabic>end</syllabic>
          <text>da</text>
        </lyric>
        <lyric number="2">
          <syllabic>single</syllabic>
          <text>me</text>
        </lyric>
        <lyric number="3">
          <syllabic>end</syllabic>
          <text>no</text>
        </lyric>
        <lyric number="4">
          <syllabic>begin</syllabic>
          <text>me en</text>
        </lyric>
      </note>
      <note>
        <pitch>
          <step>C</step>
          <octave>5</octave>
        </pitch>
        <duration>60</duration>
        <voice>1</voice>
        <type>eighth</type>
        <beam number="1">begin</beam>
        <lyric number="1">
          <syllabic>begin</syllabic>
          <text>nue</text>
        </lyric>
        <lyric number="2">
          <syllabic>begin</syllabic>
          <text>dis</text>
        </lyric>
        <lyric number="3">
          <syllabic>begin</syllabic>
          <text>fuer</text>
        </lyric>
        <lyric number="4">
          <syllabic>middle</syllabic>
          <text>tre</text>
        </lyric>
      </note>
      <note>
        <pitch>
          <step>A</step>
          <octave>4</octave>
        </pitch>
        <duration>60</duration>
        <voice>1</voice>
        <type>eighth</type>
        <beam number="1">end</beam>
        <lyric number="1">
          <syllabic>end</syllabic>
          <text>va</text>
        </lyric>
        <lyric number="2">
          <syllabic>end</syllabic>
          <text>te</text>
        </lyric>
        <lyric number="3">
          <syllabic>end</syllabic>
          <text>te</text>
        </lyric>
        <lyric number="4">
          <syllabic>end</syllabic>
          <text>go</text>
        </lyric>
      </note>
    </measure>
    <measure number="15">
      <harmony>
        <root>
          <root-step>B</root-step>
          <root-alter>-1</root-alter>
        </root>
        <kind>major</kind>
      </harmony>
      <note>
        <pitch>
          <step>B</step>
          <alter>-1</alter>
          <octave>4</octave>
        </pitch>
        <duration>60</duration>
        <voice>1</voice>
        <type>eighth</type>
        <beam number="1">begin</beam>
        <lyric number="1">
          <syllabic>single</syllabic>
          <text>y</text>
        </lyric>
        <lyric number="2">
          <syllabic>begin</syllabic>
          <text>vi</text>
        </lyric>
        <lyric number="3">
          <syllabic>single</syllabic>
          <text>no</text>
        </lyric>
        <lyric number="4">
          <syllabic>begin</syllabic>
          <text>to</text>
        </lyric>
      </note>
      <note>
        <pitch>
          <step>C</step>
          <octave>5</octave>
        </pitch>
        <duration>60</duration>
        <voice>1</voice>
        <type>eighth</type>
        <beam number="1">continue</beam>
        <lyric number="1">
          <syllabic>single</syllabic>
          <text>tu</text>
        </lyric>
        <lyric number="2">
          <syllabic>end</syllabic>
          <text>da y</text>
        </lyric>
        <lyric number="3">
          <syllabic>single</syllabic>
          <text>me</text>
        </lyric>
        <lyric number="4">
          <syllabic>middle</syllabic>
          <text>do en</text>
        </lyric>
      </note>
      <note>
        <pitch>
          <step>D</step>
          <octave>5</octave>
        </pitch>
        <duration>60</duration>
        <voice>1</voice>
        <type>eighth</type>
        <beam number="1">continue</beam>
        <lyric number="1">
          <syllabic>begin</syllabic>
          <text>sal</text>
        </lyric>
        <lyric number="2">
          <syllabic>begin</syllabic>
          <text>ple</text>
        </lyric>
        <lyric number="3">
          <syllabic>begin</syllabic>
          <text>de</text>
        </lyric>
        <lyric number="4">
          <syllabic>middle</syllabic>
          <text>te</text>
        </lyric>
      </note>
      <note>
        <pitch>
          <step>E</step>
          <alter>-1</alter>
          <octave>5</octave>
        </pitch>
        <duration>60</duration>
        <voice>1</voice>
        <type>eighth</type>
        <beam number="1">end</beam>
        <lyric number="1">
          <syllabic>middle</syllabic>
          <text>va</text>
        </lyric>
        <lyric number="2">
          <syllabic>middle</syllabic>
          <text>ni</text>
        </lyric>
        <lyric number="3">
          <syllabic>middle</syllabic>
          <text>ja</text>
        </lyric>
        <lyric number="4">
          <syllabic>end</syllabic>
          <text>ro a</text>
        </lyric>
      </note>
    </measure>
    <measure number="16">
      <harmony>
        <root>
          <root-step>G</root-step>
        </root>
        <kind>dominant</kind>
      </harmony>
      <note>
        <pitch>
          <step>D</step>
          <octave>5</octave>
        </pitch>
        <duration>240</duration>
        <voice>1</voice>
        <type>half</type>
        <lyric number="1">
          <syllabic>end</syllabic>
          <text>ción</text>
        </lyric>
        <lyric number="2">
          <syllabic>end</syllabic>
          <text>tud.</text>
        </lyric>
        <lyric number="3">
          <syllabic>end</syllabic>
          <text>rá.</text>
        </lyric>
        <lyric number="4">
          <syllabic>single</syllabic>
          <text>ti.</text>
        </lyric>
      </note>
    </measure>
    <measure number="17">
      <harmony>
        <root>
          <root-step>C</root-step>
        </root>
        <kind>minor</kind>
      </harmony>
      <note>
        <pitch>
          <step>E</step>
          <alter>-1</alter>
          <octave>5</octave>
        </pitch>
        <duration>60</duration>
        <voice>1</voice>
        <type>eighth</type>
        <beam number="1">begin</beam>
        <lyric number="1">
          <syllabic>single</syllabic>
          <text>Ya</text>
        </lyric>
        <lyric number="2">
          <syllabic>single</syllabic>
          <text>En</text>
        </lyric>
        <lyric number="3">
          <syllabic>single</syllabic>
          <text>De</text>
        </lyric>
        <lyric number="4">
          <syllabic>begin</syllabic>
          <text>Que</text>
        </lyric>
      </note>
      <note>
        <pitch>
          <step>D</step>
          <octave>5</octave>
        </pitch>
        <duration>60</duration>
        <voice>1</voice>
        <type>eighth</type>
        <beam number="1">end</beam>
        <lyric number="1">
          <syllabic>single</syllabic>
          <text>no</text>
        </lyric>
        <lyric number="2">
          <syllabic>single</syllabic>
          <text>el</text>
        </lyric>
        <lyric number="3">
          <syllabic>begin</syllabic>
          <text>to</text>
        </lyric>
        <lyric number="4">
          <syllabic>middle</syllabic>
          <text>da</text>
        </lyric>
      </note>
      <note>
        <pitch>
          <step>E</step>
          <alter>-1</alter>
          <octave>5</octave>
        </pitch>
        <duration>60</duration>
        <voice>1</voice>
        <type>eighth</type>
        <beam number="1">begin</beam>
        <lyric number="1">
          <syllabic>begin</syllabic>
          <text>ten</text>
        </lyric>
        <lyric number="2">
          <syllabic>single</syllabic>
          <text>pan</text>
        </lyric>
        <lyric number="3">
          <syllabic>end</syllabic>
          <text>dos</text>
        </lyric>
        <lyric number="4">
          <syllabic>end</syllabic>
          <text>te en</text>
        </lyric>
      </note>
      <note>
        <pitch>
          <step>G</step>
          <octave>4</octave>
        </pitch>
        <duration>60</duration>
        <voice>1</voice>
        <type>eighth</type>
        <beam number="1">end</beam>
        <lyric number="1">
          <syllabic>end</syllabic>
          <text>go</text>
        </lyric>
        <lyric number="2">
          <syllabic>single</syllabic>
          <text>y el</text>
        </lyric>
        <lyric number="3">
          <syllabic>single</syllabic>
          <text>los</text>
        </lyric>
        <lyric number="4">
          <syllabic>single</syllabic>
          <text>mi</text>
        </lyric>
      </note>
    </measure>
    <measure number="18">
      <harmony>
        <root>
          <root-step>F</root-step>
        </root>
        <kind>major</kind>
      </harmony>
      <note>
        <pitch>
          <step>G</step>
          <octave>4</octave>
        </pitch>
        <duration>60</duration>
        <tie type="start" />
        <voice>1</voice>
        <type>eighth</type>
        <beam number="1">begin</beam>
        <notations>
          <tied type="start" />
        </notations>
        <lyric number="1">
          <syllabic>single</syllabic>
          <text>más</text>
        </lyric>
        <lyric number="2">
          <syllabic>begin</syllabic>
          <text>vi</text>
        </lyric>
        <lyric number="3">
          <syllabic>begin</syllabic>
          <text>ma</text>
        </lyric>
        <lyric number="4">
          <syllabic>begin</syllabic>
          <text>co</text>
        </lyric>
      </note>
      <note>
        <pitch>
          <step>G</step>
          <octave>4</octave>
        </pitch>
        <duration>60</duration>
        <tie type="stop" />
        <voice>1</voice>
        <type>eighth</type>
        <beam number="1">end</beam>
        <notations>
          <tied type="stop" />
        </notations>
        <lyric number="1">
          <syllabic>begin</syllabic>
          <text>te</text>
        </lyric>
        <lyric number="2">
          <syllabic>middle</syllabic>
          <text>i</text>
        </lyric>
        <lyric number="3">
          <syllabic>middle</syllabic>
          <text>a</text>
        </lyric>
        <lyric number="4">
          <syllabic>middle</syllabic>
          <text>ra</text>
        </lyric>
      </note>
      <note>
        <pitch>
          <step>A</step>
          <octave>4</octave>
        </pitch>
        <duration>120</duration>
        <voice>1</voice>
        <type>quarter</type>
        <lyric number="1">
          <syllabic>end</syllabic>
          <text>mor,</text>
        </lyric>
        <lyric number="2">
          <syllabic>end</syllabic>
          <text>no,</text>
        </lyric>
        <lyric number="3">
          <syllabic>end</syllabic>
          <text>les,</text>
        </lyric>
        <lyric number="4">
          <syllabic>end</syllabic>
          <text>zón,</text>
        </lyric>
      </note>
    </measure>
    <measure number="19">
      <harmony>
        <root>
          <root-step>B</root-step>
          <root-alter>-1</root-alter>
        </root>
        <kind>major</kind>
      </harmony>
      <note>
        <pitch>
          <step>D</step>
          <octave>5</octave>
        </pitch>
        <duration>60</duration>
        <voice>1</voice>
        <type>eighth</type>
        <beam number="1">begin</beam>
        <lyric number="1">
          <syllabic>single</syllabic>
          <text>si</text>
        </lyric>
        <lyric number="2">
          <syllabic>single</syllabic>
          <text>te</text>
        </lyric>
        <lyric number="3">
          <syllabic>single</syllabic>
          <text>tú</text>
        </lyric>
        <lyric number="4">
          <syllabic>begin</syllabic>
          <text>lle</text>
        </lyric>
      </note>
      <note>
        <pitch>
          <step>C</step>
          <octave>5</octave>
        </pitch>
        <duration>60</duration>
        <voice>1</voice>
        <type>eighth</type>
        <beam number="1">continue</beam>
        <lyric number="1">
          <syllabic>begin</syllabic>
          <text>tú es</text>
        </lyric>
        <lyric number="2">
          <syllabic>single</syllabic>
          <text>nos</text>
        </lyric>
        <lyric number="3">
          <syllabic>single</syllabic>
          <text>me</text>
        </lyric>
        <lyric number="4">
          <syllabic>end</syllabic>
          <text>na</text>
        </lyric>
      </note>
      <note>
        <pitch>
          <step>D</step>
          <octave>5</octave>
        </pitch>
        <duration>60</duration>
        <voice>1</voice>
        <type>eighth</type>
        <beam number="1">continue</beam>
        <lyric number="1">
          <syllabic>end</syllabic>
          <text>tás</text>
        </lyric>
        <lyric number="2">
          <syllabic>single</syllabic>
          <text>das</text>
        </lyric>
        <lyric number="3">
          <syllabic>begin</syllabic>
          <text>li</text>
        </lyric>
        <lyric number="4">
          <syllabic>begin</syllabic>
          <text>mi e</text>
        </lyric>
      </note>
      <note>
        <pitch>
          <step>F</step>
          <octave>4</octave>
        </pitch>
        <duration>60</duration>
        <voice>1</voice>
        <type>eighth</type>
        <beam number="1">end</beam>
        <lyric number="1">
          <syllabic>begin</syllabic>
          <text>a</text>
        </lyric>
        <lyric number="2">
          <syllabic>begin</syllabic>
          <text>Se</text>
        </lyric>
        <lyric number="3">
          <syllabic>middle</syllabic>
          <text>bra</text>
        </lyric>
        <lyric number="4">
          <syllabic>middle</syllabic>
          <text>xis</text>
        </lyric>
      </note>
    </measure>
    <measure number="20">
      <harmony>
        <root>
          <root-step>G</root-step>
        </root>
        <kind>minor</kind>
      </harmony>
      <note>
        <pitch>
          <step>G</step>
          <octave>4</octave>
        </pitch>
        <duration>240</duration>
        <voice>1</voice>
        <type>half</type>
        <lyric number="1">
          <syllabic>end</syllabic>
          <text>quí.</text>
        </lyric>
        <lyric number="2">
          <syllabic>end</syllabic>
          <text>ñor.</text>
        </lyric>
        <lyric number="3">
          <syllabic>end</syllabic>
          <text>rás.</text>
        </lyric>
        <lyric number="4">
          <syllabic>end</syllabic>
          <text>tir.</text>
        </lyric>
      </note>
    </measure>
    <measure number="21">
      <harmony>
        <root>
          <root-step>B</root-step>
          <root-alter>-1</root-alter>
        </root>
        <kind>major</kind>
      </harmony>
      <note>
        <pitch>
          <step>G</step>
          <octave>4</octave>
        </pitch>
        <duration>60</duration>
        <voice>1</voice>
        <type>eighth</type>
        <beam number="1">begin</beam>
        <lyric number="1">
          <syllabic>single</syllabic>
          <text>Te</text>
        </lyric>
        <lyric number="2">
          <syllabic>begin</syllabic>
          <text>Lle</text>
        </lyric>
        <lyric number="3">
          <syllabic>single</syllabic>
          <text>Te</text>
        </lyric>
        <lyric number="4">
          <syllabic>single</syllabic>
          <text>Te</text>
        </lyric>
      </note>
      <note>
        <pitch>
          <step>A</step>
          <octave>4</octave>
        </pitch>
        <duration>60</duration>
        <voice>1</voice>
        <type>eighth</type>
        <beam number="1">end</beam>
        <lyric number="1">
          <syllabic>single</syllabic>
          <text>lo</text>
        </lyric>
        <lyric number="2">
          <syllabic>end</syllabic>
          <text>na</text>
        </lyric>
        <lyric number="3">
          <syllabic>single</syllabic>
          <text>lo</text>
        </lyric>
        <lyric number="4">
          <syllabic>single</syllabic>
          <text>lo</text>
        </lyric>
      </note>
      <note>
        <pitch>
          <step>B</step>
          <alter>-1</alter>
          <octave>4</octave>
        </pitch>
        <duration>60</duration>
        <voice>1</voice>
        <type>eighth</type>
        <beam number="1">begin</beam>
        <lyric number="1">
          <syllabic>begin</syllabic>
          <text>rue</text>
        </lyric>
        <lyric number="2">
          <syllabic>begin</syllabic>
          <text>mi al</text>
        </lyric>
        <lyric number="3">
          <syllabic>begin</syllabic>
          <text>pi</text>
        </lyric>
        <lyric number="4">
          <syllabic>begin</syllabic>
          <text>rue</text>
        </lyric>
      </note>
      <note>
        <pitch>
          <step>G</step>
          <octave>4</octave>
        </pitch>
        <duration>60</duration>
        <voice>1</voice>
        <type>eighth</type>
        <beam number="1">end</beam>
        <lyric number="1">
          <syllabic>end</syllabic>
          <text>go,</text>
        </lyric>
        <lyric number="2">
          <syllabic>end</syllabic>
          <text>ma,</text>
        </lyric>
        <lyric number="3">
          <syllabic>end</syllabic>
          <text>do,</text>
        </lyric>
        <lyric number="4">
          <syllabic>end</syllabic>
          <text>go,</text>
        </lyric>
      </note>
    </measure>
    <measure number="22">
      <harmony>
        <root>
          <root-step>D</root-step>
        </root>
        <kind>dominant</kind>
      </harmony>
      <note>
        <pitch>
          <step>G</step>
          <octave>4</octave>
        </pitch>
        <duration>60</duration>
        <voice>1</voice>
        <type>eighth</type>
        <beam number="1">begin</beam>
        <lyric number="1">
          <syllabic>begin</syllabic>
          <text>qué</text>
        </lyric>
        <lyric number="2">
          <syllabic>begin</syllabic>
          <text>da</text>
        </lyric>
        <lyric number="3">
          <syllabic>begin</syllabic>
          <text>da</text>
        </lyric>
        <lyric number="4">
          <syllabic>begin</syllabic>
          <text>qué</text>
        </lyric>
      </note>
      <note>
        <pitch>
          <step>G</step>
          <octave>4</octave>
        </pitch>
        <duration>60</duration>
        <voice>1</voice>
        <type>eighth</type>
        <beam number="1">end</beam>
        <lyric number="1">
          <syllabic>middle</syllabic>
          <text>da</text>
        </lyric>
        <lyric number="2">
          <syllabic>end</syllabic>
          <text>me</text>
        </lyric>
        <lyric number="3">
          <syllabic>end</syllabic>
          <text>me</text>
        </lyric>
        <lyric number="4">
          <syllabic>middle</syllabic>
          <text>da</text>
        </lyric>
      </note>
      <note>
        <pitch>
          <step>F</step>
          <alter>1</alter>
          <octave>4</octave>
        </pitch>
        <duration>60</duration>
        <tie type="start" />
        <voice>1</voice>
        <type>eighth</type>
        <accidental>sharp</accidental>
        <beam number="1">begin</beam>
        <notations>
          <tied type="start" />
        </notations>
        <lyric number="1">
          <syllabic>end</syllabic>
          <text>te</text>
        </lyric>
        <lyric number="2">
          <syllabic>single</syllabic>
          <text>tu</text>
        </lyric>
        <lyric number="3">
          <syllabic>single</syllabic>
          <text>tu</text>
          <extend type="start" />
        </lyric>
        <lyric number="4">
          <syllabic>end</syllabic>
          <text>te</text>
        </lyric>
      </note>
      <note>
        <pitch>
          <step>F</step>
          <alter>1</alter>
          <octave>4</octave>
        </pitch>
        <duration>60</duration>
        <tie type="stop" />
        <voice>1</voice>
        <type>eighth</type>
        <beam number="1">end</beam>
        <notations>
          <tied type="stop" />
        </notations>
        <lyric number="1">
          <syllabic>single</syllabic>
          <text>en</text>
        </lyric>
        <lyric number="2">
          <syllabic>begin</syllabic>
          <text>a</text>
        </lyric>
        <lyric number="3">
          <extend type="stop" />
        </lyric>
        <lyric number="4">
          <syllabic>single</syllabic>
          <text>en</text>
        </lyric>
      </note>
    </measure>
    <measure number="23">
      <note>
        <pitch>
          <step>G</step>
          <octave>4</octave>
        </pitch>
        <duration>240</duration>
        <voice>1</voice>
        <type>half</type>
        <lyric number="1">
          <syllabic>single</syllabic>
          <text>mí.</text>
        </lyric>
        <lyric number="2">
          <syllabic>end</syllabic>
          <text>mor.</text>
        </lyric>
        <lyric number="3">
          <syllabic>single</syllabic>
          <text>paz.</text>
        </lyric>
        <lyric number="4">
          <syllabic>single</syllabic>
          <text>mí.</text>
        </lyric>
      </note>
      <barline location="right">
        <bar-style>light-heavy</bar-style>
        <repeat direction="backward" />
      </barline>
    </measure>
  </part>
</score-partwise>